<svg xmlns="http://www.w3.org/2000/svg" xmlns:xlink="http://www.w3.org/1999/xlink" width="800" zoomAndPan="magnify" viewBox="0 0 600 599.999999" height="800" preserveAspectRatio="xMidYMid meet" version="1.0"><defs><clipPath id="9bd3b51fe2"><path d="M 219 128.5625 L 381 128.5625 L 381 290 L 219 290 Z M 219 128.5625 " clip-rule="nonzero"/></clipPath><clipPath id="b3e63bf883"><path d="M 160.929688 275.261719 L 438.769531 275.261719 L 438.769531 471.3125 L 160.929688 471.3125 Z M 160.929688 275.261719 " clip-rule="nonzero"/></clipPath></defs><g clip-path="url(#9bd3b51fe2)"><path fill="#d1baa6" d="M 299.851562 128.5625 C 255.589844 128.5625 219.585938 164.601562 219.585938 208.894531 C 219.585938 253.1875 255.589844 289.226562 299.851562 289.226562 C 344.109375 289.226562 380.113281 253.1875 380.113281 208.894531 C 380.113281 164.601562 344.109375 128.5625 299.851562 128.5625 " fill-opacity="1" fill-rule="nonzero"/></g><g clip-path="url(#b3e63bf883)"><path fill="#d1baa6" d="M 367.726562 275.40625 C 350.460938 293.050781 326.417969 304.03125 299.851562 304.03125 C 273.277344 304.03125 249.238281 293.050781 231.96875 275.40625 C 189.621094 299.25 160.929688 344.644531 160.929688 396.644531 L 160.929688 452.214844 C 171.296875 457.152344 208.964844 471.3125 299.851562 471.3125 C 390.621094 471.3125 428.304688 457.1875 438.769531 452.207031 L 438.769531 396.644531 C 438.769531 344.644531 410.078125 299.25 367.726562 275.40625 " fill-opacity="1" fill-rule="nonzero"/></g></svg>